<?xml version="1.0" encoding="UTF-8" standalone="no"?>
<!-- Generator: Adobe Illustrator 16.0.0, SVG Export Plug-In . SVG Version: 6.00 Build 0)  -->

<svg
   xmlns:dc="http://purl.org/dc/elements/1.1/"
   xmlns:cc="http://creativecommons.org/ns#"
   xmlns:rdf="http://www.w3.org/1999/02/22-rdf-syntax-ns#"
   xmlns:svg="http://www.w3.org/2000/svg"
   xmlns="http://www.w3.org/2000/svg"
   xmlns:sodipodi="http://sodipodi.sourceforge.net/DTD/sodipodi-0.dtd"
   xmlns:inkscape="http://www.inkscape.org/namespaces/inkscape"
   version="1.1"
   id="Layer_1"
   x="0px"
   y="0px"
   width="400"
   height="175"
   viewBox="0 0 400 175"
   enable-background="new 0 0 560 560"
   xml:space="preserve"
   inkscape:version="0.91 r13725"
   sodipodi:docname="name.svg"><metadata
     id="metadata567"><rdf:RDF><cc:Work
         rdf:about=""><dc:format>image/svg+xml</dc:format><dc:type
           rdf:resource="http://purl.org/dc/dcmitype/StillImage" /><dc:title></dc:title></cc:Work></rdf:RDF></metadata><defs
     id="defs565" /><sodipodi:namedview
     pagecolor="#ffffff"
     bordercolor="#666666"
     borderopacity="1"
     objecttolerance="10"
     gridtolerance="10"
     guidetolerance="10"
     inkscape:pageopacity="0"
     inkscape:pageshadow="2"
     inkscape:window-width="1366"
     inkscape:window-height="721"
     id="namedview563"
     showgrid="false"
     inkscape:zoom="2.0000001"
     inkscape:cx="156.86468"
     inkscape:cy="40.685036"
     inkscape:window-x="0"
     inkscape:window-y="0"
     inkscape:window-maximized="1"
     inkscape:current-layer="Layer_1" /><path
     style="clip-rule:evenodd;fill:#000000;fill-rule:evenodd;fill-opacity:1"
     d="m 283.75297,66.36625 c -0.43052,-0.1 -0.91355,0 -1.43555,0.21 -2.037,0.74 -3.97469,1.87 -5.17969,3.84 -1.721,2.81 -2.33786,6 -2.88086,9.17 -0.215,1.25 -0.80706,1.91 -1.91406,2.39 -2.609,1.11 -5.18948,2.29 -7.77148,3.46 -2.551,1.17 -3.7166,3.27 -3.9336,5.97 -0.061,0.74 -0.14795,1.55 0.87305,1.95 0.742,-4.04 2.81017,-6.89 6.70117,-8.29 1.33,-0.48 2.61377,-1.1 3.88477,-1.73 1.121,-0.55 1.71303,-0.59 1.70703,0.98 -0.022,5.05 -0.41194,10.03 -1.83594,14.92 -0.475,1.63 -1.1519,2.26 -2.8789,1.68 -2.24,-0.75 -3.67615,0.85 -4.99414,2.18 -1.09002,1.11 -0.82465,3.62 0.19335,5.11 1.742,2.55 3.3709,2.52 4.96289,-0.1 0.50201,-0.82 1.01023,-1.65 1.40626,-2.53 0.543,-1.2 1.2417,-1.37 2.2207,-0.52 0.385,0.34 0.79653,0.65 1.14453,1.03 2.602,2.77 4.77767,5.91 7.13867,8.87 1.77401,2.23 4.9719,3.75 4.57813,7.37 l -0.002,0 c -0.818,2.16 -0.71464,2.33 2.19336,3 -1.63322,-0.94 -1.37786,-2.21 -1.4082,-3.4 l 0.002,0 c 0.551,-1.62 1.48825,-0.71 2.28125,-0.31 2.813,1.4 5.51378,1.12 8.05078,-0.6 4.159,-2.8 5.85569,-9.56 3.80469,-14.85 -0.221,-0.57 -0.80072,-1.18 -0.0117,-1.71 0.961,-0.65 1.97091,-1.48 3.12891,-1.37 0.842,0.1 0.86511,1.22 0.91211,1.95 0.088,1.35 0.0121,2.71 -0.006,4.07 -0.01,0.73 -0.4377,1.55 0.6543,1.95 1.179,0.42 1.21651,-0.6 1.60351,-1.19 0.319,-0.48 0.58569,-1 0.92969,-1.47 0.402,-0.55 0.63492,-1.52 1.41992,-1.4 0.908,0.13 1.2405,1.11 1.4375,1.91 0.385,1.56 0.52489,3.19 0.96289,4.73 0.886,3.12 4.79247,4.33 7.35547,2.34 0.576,-0.45 0.72223,-1.01 0.36523,-1.67 -0.153,0 -0.33771,0 -0.38671,0.1 -1.027,1.49 -2.41432,1.52 -3.94532,0.99 -1.627,-0.57 -1.65272,-1.96 -1.76172,-3.33 -0.119,-1.48 -0.23607,-2.96 -0.45507,-4.43 -0.445,-2.98 -2.99594,-4.96 -5.83594,-2.6 -0.31,0.25 -0.60914,0.77 -1.11914,0.25 -0.625,-0.65 -0.39411,-3.32 0.33789,-3.88 7.588,-5.77 9.78558,-16.91 6.26758,-25.56 -1.963,-4.83 -7.93914,-5.4 -11.24414,-0.89 -1.324,1.42 -1.97369,3.15 -2.42969,4.99 l 0,0 c -0.641,2.57 -1.01777,5.14 -0.75977,7.81 0.377,3.89 1.88252,7.31 3.72852,10.69 1.977,3.62 2.06406,3.46 -2.21094,4.72 -0.767,0.22 -1.37125,-0.13 -2.03125,-0.39 -1.513,-0.58 -3.05044,-0.41 -4.14844,0.71 -1.058,1.08 -1.44136,2.62 -1.06836,4.15 0.6,2.45 3.37285,3.37 5.33985,1.78 0.725,-0.58 1.3359,-1.31 2.1289,-2.1 0.94,2.37 0.71296,4.6 0.25196,6.79 -0.645,3.07 -2.25974,5.47 -5.30274,6.62 -3.002,1.13 -5.57818,0.1 -7.86718,-1.84 -2.681,-2.24 -4.91433,-4.93 -7.11133,-7.63 -1.467,-1.81 -2.75575,-3.75 -4.21875,-5.76 1.18,-0.29 1.8707,-0.1 2.4707,0.5 0.002,0 0.002,0 0.004,0 -0.002,0 -0.004,0 -0.006,0 1.543,3.45 3.8512,4.33 6.4082,2.45 1.606,-1.18 1.77969,-3.08 0.42969,-4.7 -1.067,-1.28 -1.99171,-1.18 -3.7207,0.39 -0.315,0.84 -0.0626,1.53 0.5664,2.1 0.317,0.28 0.79888,0.36 1.04688,0 0.4,-0.54 -0.17186,-0.58 -0.50586,-0.7 -0.308,-0.11 -0.29736,-0.37 -0.31836,-0.62 0.506,-0.67 0.99979,-1.55 1.96679,-0.71 0.984,0.85 1.24418,1.99 0.45118,3.09 -0.553,0.77 -1.28107,1.56 -2.41407,1.19 -1.56481,-0.52 -2.69003,-1.48 -2.81445,-3.26 4.5e-4,0 0.002,0 0.002,0 0.258,-0.4 0.8063,-1.16 0.0293,-1.17 -2.209,0 -1.32794,-1.18 -1.08594,-2.25 0.132,-0.58 0.52136,-1.19 0.0684,-1.93 -0.897,0.45 -1.42595,1.29 -2.12695,1.91 -0.871,0.79 -1.93363,0.82 -2.89063,0.35 -1.151,-0.56 -0.32856,-1.5 -0.10156,-2.19 1.577,-4.77 2.08555,-9.72 2.06055,-14.67 -0.018,-3.32 1.76444,-4.71 4.43945,-5.66 l 0.002,0 c 0.91955,0.23 0.63976,0.97 0.67773,1.58 0.072,1.09 -5e-5,2.25 0.75195,3.14 0.79377,0.94 1.71312,1.66 2.81836,0.36 -1.08634,0 -2.07307,-0.26 -2.45117,-1.38 -0.469,-1.37 -0.16364,-2.65 0.94336,-3.66 1.564,-0.26 3.03726,-1.03 4.69727,-0.78 0.653,0.1 1.2797,-0.13 1.8457,-0.48 0.474,-0.29 1.37348,-0.34 1.27148,-1 -0.144,-0.93 -1.07037,-0.27 -1.60937,-0.47 -0.401,-0.15 -0.89078,0.18 -1.30078,-0.26 0.113,-1.02 1.23634,-1.25 1.65234,-2.02 0.481,-0.9 1.33766,-2.23 0.72266,-2.77 -0.803,-0.7 -1.44683,0.75 -2.17383,1.26 -1.039,0.65 -1.81891,1.55 -2.37891,2.63 0.004,0 0.008,0 0.0117,0 -0.003,0 -0.006,0 -0.01,0 -0.96298,0.76 -1.72853,1.9 -3.51953,1.81 0.681,-0.84 1.22046,-1.45 1.68946,-2.1 1.325,-1.85 2.57262,-3.75 2.64062,-6.12 0.0487,-1.68 -0.76705,-2.83 -2.05859,-2.98 z m 0.0273,18.31 c 0.0141,0 0.0269,0 0.041,0 0.006,0 0.015,0 0.0215,0 -0.0147,0 -0.0263,0 -0.041,0 -0.007,0 -0.0142,0 -0.0215,0 z m 0.0625,0 c 1.12653,-0.14 1.95536,-0.61 1.83789,-1.92 -0.104,-1.17 -1.0159,-1.53 -2.0039,-1.71 -0.309,-0.1 -0.68358,0 -0.76758,0.37 -0.061,0.28 0.17345,0.45 0.43945,0.51 2.32093,0.55 1.14848,1.69 0.49414,2.75 z m -1.83594,-16.23 c 0.37013,0.1 0.58997,0.33 0.57422,0.98 -0.346,0.94 -0.65815,2.06 -1.16015,3.1 -1.164,2.39 -2.90847,4.37 -4.73047,6.28 -0.215,0.23 -0.4023,0.57 -0.7793,0.44 -0.41,-0.13 -0.32748,-0.51 -0.27148,-0.81 0.58,-3.03 1.12745,-6.08 3.31445,-8.49 0.721,-0.8 1.58377,-1.3 2.63477,-1.48 0.15325,0 0.29459,0 0.41796,0 z m 23.28125,5.61 c 8.77825,2.05 5.44293,15.26 3.06641,21.6 -0.598,1.57 -1.773,2.82 -2.875,4.07 -0.738,0.85 -1.35044,0.8 -1.89844,-0.25 -1.914,-3.64 -3.91376,-7.21 -4.38476,-11.45 -0.241,-2.16 0.12875,-4.23 0.21875,-6.34 0.39277,-1.12 1.49301,-7.36 5.87304,-7.63 z m -38.00585,28.86 c 0.80231,0 1.60504,0.37 2.37304,0.64 0.611,0.21 0.40788,0.7 0.17188,1.11 -0.387,0.67 -0.73427,1.38 -1.19727,1.99 -0.557,0.74 -1.06269,1.91 -2.17969,1.52 -1.035,-0.36 -0.95662,-1.56 -1.01562,-2.75 0.031,-0.76 0.0509,-1.85 1.04687,-2.32 0.266,-0.12 0.53335,-0.18 0.80079,-0.19 z m 30.73437,2.47 c 0.043,0 0.20645,0.28 0.31445,0.43 -0.383,1.06 -1.11279,1.75 -2.09179,2.19 -0.799,0.36 -1.62288,0.61 -2.29688,-0.19 -0.561,-0.68 -0.75172,-1.59 0.11328,-1.99 1.213,-0.57 2.66594,0.1 3.96094,-0.44 z m -15.08594,15.11 c -0.22925,0 -0.48237,0.1 -0.73437,0.25 -0.957,0.55 -1.75549,1.19 -1.27149,2.44 0.459,1.19 1.05839,2.27 3.02539,2.07 -0.725,-0.52 -1.3194,-0.74 -1.5664,-1.17 -0.455,-0.79 -1.11714,-1.8 0.38086,-2.28 0.502,-0.16 1.1579,-0.1 0.7539,-0.89 -0.153,-0.3 -0.35864,-0.41 -0.58789,-0.42 z"
     id="path7"
     inkscape:connector-curvature="0"
     sodipodi:nodetypes="sccccccccccccccccccccccccccccccccccccccccccccccccccccccccccccccccccccccccccccccccccccccccccccccccccccccccccsccccccccccccccccccccccccccccccccccccccccccccccccc" /><path
     inkscape:connector-curvature="0"
     style="clip-rule:evenodd;fill:#000000;fill-rule:evenodd;fill-opacity:1"
     d="m 235.16797,56.726562 c -0.49052,0 -0.99961,0.119532 -1.50586,0.269532 -3.801,1.1 -6.88913,3.310625 -8.95313,6.640625 -1.533,2.47 -3.42387,4.209609 -6.17187,5.099609 -1.576,0.52 -2.71889,1.689141 -3.83789,2.869141 -0.866,0.92 -0.92947,1.940547 -0.60547,3.060547 0.586,2.02 3.19539,3.299687 5.52539,2.429687 1.525,-0.57 1.60528,0.100469 1.73828,1.230469 0.189,1.6 0.32439,3.239531 0.77539,4.769531 1.139,3.87 -0.0511,6.780235 -3.28906,8.990235 -0.371,0.26 -0.72636,0.539843 -1.06836,0.839843 -2.678,2.3 -5.86703,4.05 -7.70703,7.249999 -0.793,1.38 -0.79299,2.70094 0.16602,3.96094 0.955,1.26 2.16165,1.81961 3.72265,1.09961 1.035,-0.1 0.77378,0.75008 0.92578,1.33008 0.656,2.47 2.16186,3.18015 4.50586,2.16015 1.985,-0.8 2.30071,-1.49054 1.47071,-3.31054 -0.268,-0.58 -0.61157,-1.11055 -0.35157,-1.81055 0.166,-0.46 1.07377,-0.95844 0.25977,-1.39844 -0.625,-0.35 -1.19699,0.34008 -1.58399,0.83008 -0.737,0.93 -0.86164,1.99836 -0.30664,3.06836 0.293,0.57 0.68332,1.11078 0.44532,1.80078 -0.957,0.71 -1.96611,0.61039 -2.78711,-0.0996 -1.01694,-0.89 -0.91518,-2.13008 -0.63086,-3.33008 l 0.002,0 c 0.407,-0.5 0.76561,-1.05023 1.22461,-1.49023 2.896,-2.83 5.13776,-6.259142 6.38476,-10.119142 0.89901,-2.780001 1.18306,-6.561016 4.20508,-8.041016 3.01699,-1.46 6.03974,1.209687 4.30274,4.679687 -1.018,2.04 -2.49385,3.75 -4.21485,5.25 -0.477,0.42 -1.6755,0.849766 -0.6875,1.759766 0.769,0.72 1.69336,1.530313 2.81836,0.320313 1.455,-1.560001 2.95322,-3.040547 3.82422,-5.060547 1.207,-2.81 2.74821,-5.379375 5.40821,-7.109375 0.49199,-0.32 0.85134,-0.749375 1.52734,-0.609375 1.678,0.34 3.25394,2.90039 2.96094,4.65039 -0.553,3.3 -2.65413,5.589766 -5.07813,7.509766 -4.572,3.63 -7.44545,8.138983 -8.18945,13.958983 -0.074,0.57 -0.41976,1.23141 -0.0508,1.69141 1.355,1.7 2.08434,3.81867 3.65234,5.38867 1.445,1.44 3.217,1.78023 5.125,1.74023 0.722,0 0.98428,-0.53047 0.86328,-1.23047 -0.103,-0.57999 -0.45523,-0.68859 -0.99023,-0.55859 -2.687,0.68 -4.24816,-0.84109 -5.53516,-2.87109 -0.207,-0.33 -0.52145,-0.69055 -0.31445,-1.06055 0.248,-0.44 0.68572,-0.21 1.01172,0 0.875,0.47 1.76919,0.16109 2.66015,0.12109 1.719,-0.2 2.00451,-1.50937 2.1875,-2.85937 0.14801,-1.1 -0.30849,-1.83008 -1.4375,-2.08008 -0.439,0 -0.88031,-0.1 -1.32031,0 -0.584,0 -0.90031,0.39992 -1.07031,0.91992 -0.156,0.47 -0.4312,0.95891 0.0937,1.37891 0.254,0.2 0.54919,0.34969 0.86719,0.17969 0.791,-0.43 0.15079,-1.15899 0.34179,-1.70899 0.843,0 1.58938,0.26922 1.73438,1.19922 0.20289,1.31 -0.88709,1.72 -1.75586,2.25 -2.945,0 -4.72891,-1.74008 -3.62891,-3.83008 1.279,-2.44 2.37646,-5.01859 4.31445,-7.05859 2.129,-2.240001 4.46891,-4.310704 6.37891,-6.720704 2.754,-3.47 3.37282,-7.799765 0.0508,-10.759765 -0.0213,-0.03458 -0.0263,-0.07965 -0.043,-0.117188 0.0153,0.0084 0.0268,0.01947 0.043,0.02734 0.56789,-0.799981 1.49149,-0.384129 2.19922,-0.701172 0.008,0.0122 0.0207,0.01714 0.0273,0.03125 1.20935,-0.2 2.29005,-0.579922 2.67773,-1.919922 -1.2374,0.47255 -2.35182,1.355579 -3.79102,1.144531 -0.0223,-0.01474 -0.0441,-0.03018 -0.0664,-0.04492 l 0,-0.05078 c -0.651,0.1 -1.30117,0.09961 -1.95117,0.09961 0.0227,0.03357 0.035,0.07388 0.0547,0.109375 -0.0198,-0.005 -0.0335,-0.01342 -0.0547,-0.01758 -0.745,-0.21 -0.6856,-0.620626 -0.3086,-1.140626 0.563,-0.79 1.14467,-1.57039 1.63867,-2.40039 0.23,-0.38 0.80908,-0.859844 0.20508,-1.339844 -0.428,-0.34 -0.98265,-0.21 -1.47265,0 -1.064,0.48 -1.55124,1.509375 -2.24024,2.359375 -1.529,1.87 -1.69375,1.849766 -2.71875,-0.240234 -0.289,-0.59 -0.35152,-1.710078 -1.26953,-1.330078 -0.87099,0.36 -0.54539,1.38125 -0.15039,2.03125 1.885,3.11 1.40576,3.019218 -1.61523,5.699218 0.513,-0.46 -2.69611,-4.540078 -3.53711,-4.830078 -2.267,-0.77 -4.31005,1.34125 -6.12305,2.28125 -1.969,-3.05 -2.1383,-9.251328 -1.7793,-12.861328 0.135,-1.37 0.63285,-2.13 2.08985,-2.25 1.281,-0.11 2.53935,-0.488672 3.81835,-0.638672 3.826,-0.44 6.61743,-2.321484 8.35743,-5.771484 0.793,-1.57 0.81015,-3.098828 -0.2168,-4.548828 -0.59688,-0.84 -1.3602,-1.099844 -2.17773,-1.089844 l 0.002,-0.07031 z m -0.48828,1.269532 c 0.801,0 1.53339,0.300078 1.90039,1.080078 0.359,0.76 -0.31117,1.160625 -0.70117,1.640625 -2.788,3.4 -6.76602,4.358516 -10.79102,5.228515 1.635,-3.479999 4.23007,-5.879765 7.53906,-7.509765 0.611,-0.3 1.35874,-0.409453 2.05274,-0.439453 z M 220.50977,69.84375 c 0.0373,0.0047 0.075,0.01797 0.10937,0.04297 l 0,-0.04102 c 0.41278,0.1 0.61078,0.380703 0.55078,0.970703 -0.064,0.64 -0.12858,1.279688 -0.14258,1.429688 -0.135,3.49 -1.2107,4.449297 -3.7207,3.779297 -1.934,-0.5 -2.54698,-2.249141 -1.33398,-3.869141 1.037,-1.38 2.59006,-1.859531 4.16406,-2.269531 0.138,0 0.26114,-0.05703 0.37305,-0.04297 z m 27.01953,6.591797 c -0.23615,4.89e-4 -0.51289,0.100788 -0.83985,0.230469 -1.27099,0.69 -1.51015,2.001093 -1.28515,3.371093 0.061,0.37 0.27506,0.588282 0.66406,0.488282 0.456,-0.12 0.61953,-0.429141 0.39453,-0.869141 -0.404,-0.8 -0.38039,-1.620703 0.47461,-1.970703 0.845,-0.35 1.08623,0.690078 1.61523,1.080078 0.32395,0.93 -0.0799,1.839766 -0.0371,2.759766 1.32413,-1.01 1.4293,-2.178282 0.41602,-3.488282 l -0.004,0 c -0.33494,-0.719336 -0.68819,-1.540217 -1.39648,-1.601562 l -0.002,0 z m 0.98632,5.089844 0,-0.09961 c 10e-4,0.1 -0.005,0.09961 -0.004,0.09961 l 0.004,0 z m -2.88085,1.873047 c 0.0261,0.01139 0.0483,0.02932 0.0703,0.04687 -0.0236,-0.01554 -0.0468,-0.03133 -0.0703,-0.04687 z m -23.15625,7.027343 c -1.328,5.5 -3.64319,9.720699 -7.86719,12.720699 -0.799,0.56 -1.80106,1.32071 -2.78906,0.47071 -1.01,-0.87 -0.35458,-1.87078 0.10742,-2.80078 1.58,-3.200004 4.5569,-5.030473 7.1289,-7.230472 1.037,-0.88 1.89093,-2.010157 3.41993,-3.160157 z m 26.99218,14.210939 c -0.867,0.07 -1.65589,0.40945 -1.71289,1.43945 -0.048,0.9 0.49252,1.44102 1.35352,1.54102 1.095,0.1 1.33826,-0.7018 1.44726,-1.3418 0.008,-0.99 -0.11289,-1.73867 -1.08789,-1.63867 z"
     id="path9" /><path
     inkscape:connector-curvature="0"
     style="clip-rule:evenodd;fill:#000000;fill-rule:evenodd;fill-opacity:1"
     d="m 81.408203,49.755859 0,0.0098 c -0.5295,0 -1.119953,0.100703 -1.783203,0.220703 -4.127,0.99 -7.034969,3.819922 -8.667969,7.419922 -1.304,2.88 -3.29325,3.520938 -5.90625,3.960938 -3.622,0.609999 -7.273344,1.249999 -10.652343,2.75 -2.945001,1.31 -5.607579,2.989453 -6.017579,6.689453 -0.111,1 -0.258453,2.039687 0.560547,2.679687 0.974,0.76 2.143422,0.77 3.232422,0 0.447,-0.31 1.286656,-0.419922 0.972656,-1.169922 -0.318,-0.76 -0.993578,-0.271093 -1.517578,-0.121094 -1.543,0.47 -2.029687,0.101485 -1.804687,-1.478515 0.234,-1.63 1.103474,-3.03961 2.396484,-3.849609 4.685,-2.93 9.941859,-3.791485 15.380859,-3.771485 0.746,0 1.198329,0.321172 1.111329,1.201172 -0.532,5.46 -0.06111,10.978438 -1.160157,16.398437 -0.171,1.57 -0.254031,3.170391 -1.082031,4.650391 -0.25201,-1.69 0.633203,-3.32 0.408203,-5 l 0.002,0 c -0.39,-0.53 -0.544125,-1.468516 -1.453125,-1.228515 -0.69,0.189999 -0.787859,0.928124 -0.880859,1.578124 -0.09,0.63 -0.170219,1.270625 -0.324219,1.890626 -0.221,0.879998 0.73226,2.069531 -0.01172,2.519531 -0.749001,0.46 -1.676172,-0.599141 -2.576172,-0.869141 -1.057,-0.32 -2.16,-0.599844 -2.625,0.660156 -0.472,1.27 0.804359,1.329688 1.568359,1.679688 0.171,0.1 0.323375,0.200781 0.484375,0.300781 1.057,0.17 2.058391,0.558672 3.150391,0.638672 1.243,0.11 2.012572,0.780937 1.476562,2.210937 5.51e-4,-0.0065 -5.89e-4,-0.01308 0,-0.01953 -0.577,1.05 -1.091312,2.149063 -2.195312,2.789063 -1.225,0.72 -3.073188,0.409765 -3.742188,-0.740235 -0.701,-1.2 -0.350515,-2.180078 0.896485,-2.830078 0.63,0 1.414593,-0.199687 1.683593,0.570313 0.262,0.75 -0.671797,0.579453 -0.966797,0.939453 -0.226,0.28 -0.382187,0.539844 -0.117187,0.839844 0.303,0.33 0.676922,0.301562 1.044922,0.101562 0.823,-0.5 1.090297,-1.309922 0.904297,-2.169922 -0.20913,-0.96 -0.844503,-1.44164 -1.757813,-1.43164 l -0.408203,0 c -0.432,0.22 -0.864875,0.43039 -1.296875,0.65039 -1.124,0.75 -1.722078,1.669844 -1.205078,3.089844 0.804,2.22 3.394375,3.039687 5.359375,1.679687 0.401,-0.28 0.710203,-1.078203 1.408203,-0.408203 0.0018,-0.0025 0.0021,-0.0053 0.0039,-0.0078 -9.92e-4,0.0094 0.0011,0.01794 0,0.02734 -0.522,1.18 -1.0445,2.349295 -1.5625,3.529297 -0.899,2.049998 -2.495218,2.931093 -4.699219,3.121093 -3.402,0.31 -6.700953,-0.271718 -9.876953,-1.261719 -5.642,-1.76 -10.947001,-0.948515 -16.125,1.521485 -2.139,1.02 -3.338687,3.71884 -2.804687,5.79882 0.567,2.21001 1.989359,3.47993 4.193359,3.66993 2.272997,0.19 4.176328,-0.5986 5.236328,-2.8086 0.293,-0.5 0.283079,-0.83078 -0.419921,-0.80078 -1.477,1.63 -2.70158,3.22922 -5.392579,1.44922 -1.88,-1.24 -2.599625,-1.92906 -1.640625,-4.03906 0.473,-1.04 1.165813,-1.92946 2.132813,-2.43945 3.900001,-2.030007 8.642453,-3.151408 12.939453,-1.691408 3.312,1.13 5.483031,4.011638 9.082031,4.681638 9.764,1.8 11.298563,-6.481091 12.851563,-14.371091 1.525,-7.75 0.840953,-15.690703 2.251953,-23.470704 0.381,-2.1 1.091453,-2.898671 3.064453,-3.388671 3.236,-0.79 6.496,-1.680938 9.125,-3.960938 2.1,-1.82 2.467516,-3.519766 1.228516,-6.009765 -0.84375,-1.700002 -1.888073,-2.540079 -3.476563,-2.580079 z m -0.175781,2.140625 c 0.915,0 1.519642,0.590235 1.80664,1.490235 0.263002,0.83 -0.134421,1.279062 -0.732421,1.789062 -2.524,2.15 -5.621485,2.879532 -9.146485,4.019531 1.48,-3.49 3.171813,-5.969531 6.382813,-7.019531 0.539,-0.17 1.132453,-0.309297 1.689453,-0.279297 z M 60.787109,84.855469 c 1.08225,0 1.828204,0.740937 2.908203,1.210937 -1.694,0.32 -2.694953,-0.270469 -4.126953,-0.980468 0.4605,-0.170001 0.858,-0.240469 1.21875,-0.230469 z"
     id="path11" /><path
     style="clip-rule:evenodd;fill:#000000;fill-rule:evenodd;fill-opacity:1"
     d="m 135.22172,89.23625 c -0.44456,0 -0.9248,0 -1.43555,0.13 -5.36,1.2 -8.61659,4.78 -10.43359,9.69 -0.537,1.45 -1.10125,3.18 -0.28125,4.88 1.12037,2.31 3.73503,2.16 5.92578,2.12 -1.38604,0.18 -4.24918,1.42 -3.77344,2.41 0.213,0.45 3.71903,0.8 3.95703,0.43 -0.287,0.44 -0.40714,1.2 -0.74414,1.63 0.645,-0.27 1.49752,-0.75 2.22852,-0.83 1.675,-0.17 2.87015,-0.78 2.91015,-2.68 0.014,-0.67 0.43686,-0.9 1.00586,-0.94 0.427,0 0.86443,-0.16 1.23242,0.28 1.25701,1.53 1.57405,1.5 2.49805,-0.14 1.758,-3.12 9.18299,0.18 7.95899,2.13 0.551,-0.88 -0.50507,-1.92 0.83593,-1.98 0.901,0 1.80599,0 2.70899,0 0.86,0 1.219,0.92 1.125,1.62 -2.247,0.34 -1.66856,3.69 -4.35156,3.57 2.697,0.13 2.96684,0.41 4.71484,-1.77 0.994,-1.24 1.54614,-0.8 1.86914,0.49 0.078,0.31 0.0954,0.64 0.19141,0.95 0.19,0.61 0.56348,1.04 1.27148,0.92 0.654,-0.12 1.01383,-0.55 1.04883,-1.21 0.027,-0.52 0.0315,-1.04 -0.26953,-1.5 -0.142,-0.89 0.5579,-0.98 1.1289,-1.19 1.001,0.51 2.00552,0.88 3.10352,0.25 0.473,-0.27 0.89719,-0.58 0.74219,-1.19 -0.136,-0.53 -0.62113,-0.68 -1.07813,-0.56 -1.713,0.47 -1.98372,-0.79 -2.38672,-1.92 -1.091,-1.11 -1.05828,-2.06 0.0957,-3.23 1.068,-1.08 0.84643,-2.63 0.77343,-4.04 -0.025,-0.47 0.0919,-1.23 -0.62109,-1.23 -0.851,0 -0.65592,0.82 -0.66992,1.34 -0.033,1.42 0.0226,2.78 -1.02539,4.01 -2.2,2.57 -6.16903,3.87 -9.45703,2.91 -0.466,-0.14 -1.12349,-0.18 -1.14649,-0.83 -0.019,-0.53 0.57603,-0.69 0.95703,-0.83 3.029,-1.18 9.669,-8.82 6.125,-12.28 -1.407,-1.36 -3.63454,0.1 -5.06054,0.92 -3.741,2.24 -7.17786,6.78 -5.88086,11.35 -1.187,-0.57 -2.3281,0.75 -3.4961,0 -0.0775,-0.1 -0.15488,-0.1 -0.23242,-0.13 l -0.002,0 c -0.5715,-0.32 -1.14266,-0.62 -1.71094,-0.68 -0.64587,-0.1 -1.28878,0.13 -1.92578,0.85 l 0.002,0 c -0.627,1.01 -1.53534,1.27 -2.65234,1.02 -1,-0.22 -2.01591,-0.39 -3.00391,-0.65 -3.085,-0.83 -3.68039,-2.05 -2.52539,-5.04 l 0.002,0 c -0.002,0 -0.004,0 -0.006,0 1.386,-4.22 4.27032,-6.74 8.61132,-7.59 0.95,-0.19 1.78332,-0.1 2.19532,1.02 0.44,1.16 -0.22886,1.64 -1.13086,2.05 -1.117,0.51 -2.27066,0.85 -3.47266,1.12 -2.19379,0.49 -4.21575,1.34 -5.45508,3.4 2.2e-4,0 -2.2e-4,0 0,0 0.452,0.27 0.94903,0.58 1.45703,0.4 2.161,-0.75 4.46021,-0.64 6.65821,-1.13 0.896,-0.19 1.64881,-0.72 2.38281,-1.26 1.553,-1.13 2.12689,-3.36 1.33789,-5.19 -0.48825,-1.14 -1.49248,-1.78 -2.82617,-1.84 z m 15.16992,4.16 c 0.41044,0 0.5362,0.26 0.5332,0.85 -0.017,3.64 -2.46908,6.83 -5.95507,7.8 -1.09701,0.31 -1.43102,-0.12 -1.29102,-1.07 0.222,-2.66 3.58017,-6.61 6.20117,-7.47 0.2055,-0.1 0.37491,-0.11 0.51172,-0.11 z m -15.47852,9.51 c 0.189,0 0.69385,0 1,0.1 0.30615,0.11 0.59482,0.26 0.79102,0.3 -0.489,0.94 -1.3875,0.81 -2.1875,0.74 -0.647,-0.1 -0.36183,-0.64 -0.17383,-0.84 0.188,-0.19 0.34914,-0.22 0.44531,-0.27 0.0962,-0.1 -0.064,0 0.125,0 z m 20.21485,1.83 c 0.42475,0.1 0.90534,0.27 1.27734,0.16 0.877,0.72 -5e-5,1.46 0.002,2.18 -0.374,-1.04 -1.12871,-1.51 -2.22071,-1.47 0.147,-0.8 0.51666,-0.92 0.94141,-0.87 z m -3.00391,0.99 c 0.14585,0 0.30349,0.1 0.44336,0.34 0.24,0.42 0.17045,1.02 0.81445,1.15 0.2,0.32 1.28796,0.32 0.37696,1.05 -0.236,-0.1 -0.57846,0 -0.68946,-0.15 -0.489,-0.62 -1.55964,-0.86 -1.43164,-1.86 0.0331,-0.26 0.24325,-0.53 0.48633,-0.53 z m -19.91797,1.18 c 0.397,0 0.57077,0.25 0.50977,0.62 -0.114,0.67 -0.38713,1.22 -1.20313,1.21 -0.325,-0.1 -0.68182,-0.13 -0.54882,-0.56 0.191,-0.62 0.47218,-1.22 1.24218,-1.27 z"
     id="path13"
     inkscape:connector-curvature="0" /><path
     style="clip-rule:evenodd;fill:#000000;fill-rule:evenodd;fill-opacity:1"
     d="m 182.50492,91.25625 c -0.832,1.36 -1.72033,2.21 -3.61133,1.59 -1.254,-0.41 -2.44628,0.54 -3.36328,1.53 -0.318,0.34 -0.48328,0.95 -1.23828,0.72 -0.068,-1.31 -0.27337,-2.64 -1.73437,-3.11 -1.484,-0.48 -2.59215,0.35 -3.61915,1.3 -0.536,0.51 -0.9554,1.22 -1.8164,1.21 -0.462,-0.83 -0.0213,-2.13 -1.2793,-2.44 -0.892,-0.21 -1.78284,0.21 -2.21484,0.91 -0.903,1.47 -1.73635,3.03 -0.90235,4.86 6.9e-4,0 0.001,0 0.002,0 0.583,0.1 1.25772,0.23 1.01172,-0.78 -0.074,-0.31 -0.22625,-0.65 -0.15625,-0.93 0.158,-0.63 0.0782,-1.65 0.99023,-1.59 0.653,0.1 0.83341,0.9 0.81641,1.56 -0.049,1.91 0.22673,3.85 -0.74024,5.64 2.6e-4,0 -2.6e-4,0 0,0 -0.50306,1.49 -1.33839,2.11 -2.88476,0.96 -0.217,0.87 -0.68577,1.9 -0.13477,2.4 0.719,0.65 1.68019,0 2.49219,-0.43 3.003,-1.41 1.9935,-5.8 3.5625,-8.22 0.643,-0.99 2.84766,-2.91 4.22266,-2.22 1.984,1.01 -0.21932,5.11 -1.07032,6.59 -1.414,2.44 -1.81142,4.63 0.39258,6.78 0.076,0.34 0.34077,0.4 0.63477,0.42 0.5345,1.31 -0.2065,1.96 -1.29297,2.31 -0.664,0.21 -1.39275,0.22 -2.09375,0.31 -1.688,0.22 -2.99299,1.54 -2.95899,3.02 0.038,1.65 1.49266,3.43 2.97266,3.65 1.662,0.23 3.33717,-1.3 2.95117,-2.69 -0.133,-0.48 -0.34144,-0.86 -0.89844,-0.82 -0.303,0 -0.75223,0.1 -0.86523,0.29 -0.322,0.56 0.41545,0.46 0.56445,0.72 0.496,0.88 -0.13864,1.14 -0.80664,1.31 -1.277,0.31 -2.53175,-0.65 -2.71875,-2.09 -0.177,-1.38 0.0977,-2.58 1.80469,-2.53 2.186,0.1 3.67106,-0.95 4.78906,-2.7 0.32348,-0.16 0.64719,-0.32 0.97266,-0.48 -0.291,-1.89 -0.28986,-1.89 0.74414,-3.42 -1.251,0.1 -2.51419,0.82 -3.74219,-0.1 l -0.002,0 c 0.264,-4.31 2.95898,-7.86 6.83398,-9.16 1.216,-0.41 1.62453,-0.15 1.64453,1.13 0.024,1.66 -0.75007,3.13 -0.95507,4.72 -0.196,1.5 -0.74763,3.05 0.35937,4.47 2.56,3.26 6.7622,1.39 8.1582,-1.31 0.459,-0.89 0.27932,-1.84 -0.55468,-2.43 -0.86,-0.61 -1.85586,-0.51 -2.75586,0 -0.507,0.29 -0.70349,0.86 -0.39649,1.34 0.426,0.66 0.85188,0.32 1.17188,-0.2 0.334,-0.55 0.76559,-0.31 1.18359,-0.14 0.34,0.14 0.53364,0.43 0.43164,0.77 -0.372,1.25 -1.36953,1.78 -2.51953,2.16 -1.098,0.36 -2.39409,0.3 -2.74609,-0.67 -0.377,-1.05 -1.22694,-2.12 -0.58594,-3.52 0.692,-1.51 1.15847,-3.16 1.48047,-4.8 0.196,-1 0.40462,-1.49 1.51562,-1.31 0.621,0.1 1.22221,-0.24 1.28321,-0.91 0.069,-0.79 -0.54536,-0.88 -1.19336,-0.86 -1.779,0.1 -0.82408,-0.66 -0.33008,-1.24 0.364,-0.84 0.35631,-1.5 -0.80469,-1.59 z"
     id="path15"
     inkscape:connector-curvature="0" /><path
     style="clip-rule:evenodd;fill:#000000;fill-rule:evenodd;fill-opacity:1"
     d="m 100.12211,87.33625 c -3.20856,0.19 -5.9296,1.71 -8.07422,4.28 -0.651,0.77 -1.07066,1.87 -0.59766,2.9 0.509,1.1 1.61791,1.41 2.75391,1.46 1.357,0.1 4.84948,-0.96 5.64648,0.68 1.415,2.92 -5.28565,5.95 -7.34765,6.26 -0.953,0.15 -1.78383,0 -2.42383,-0.81 -0.534,-0.68 -0.312,-1.32 0,-1.99 0.448,-0.96 1.29447,-1.24 2.23047,-1.22 0.671,0 1.34559,0.32 1.18359,1.18 -0.127,0.69 -0.51047,1.26 -1.35547,0.8 -0.455,-0.25 -0.88211,-0.44 -1.03711,0.22 -0.168,0.71 0.48322,0.89 0.94922,0.95 1.34,0.16 2.26925,-0.51 2.65625,-1.75 0.396,-1.27 -0.32483,-2.12 -1.42382,-2.61 -1.29901,-0.57 -3.03199,0.21 -3.95899,1.64 -0.94,1.45 -0.77836,2.95 0.30664,4.07 0.726,0.74 1.47916,1.1 0.66016,2.21 -0.225,0.3 -0.16963,0.76 0.23437,1.02 0.326,0.21 0.63133,0.12 0.86133,-0.14 1.711,-1.93 1.33675,0 1.46875,0.82 0.069,0.43 -0.0456,0.89 -0.0566,1.35 -0.008,0.32 0.0203,0.66 0.4043,0.78 0.34,0.11 0.5827,0 0.8457,-0.28 1,-0.93 0.93134,-2.08 0.65234,-3.23 -0.375,-1.54 0.1605,-2.43 1.6875,-2.9 1.72,-0.53 3.3795,-1.19 4.8125,-2.38 2.686,-2.23 2.7271,-3.9 -0.2539,-6.22 1.212,-0.62 1.979,-1.45 2.625,-2.44 1.567,-2.42 0.79108,-4.48 -2.04492,-4.64 -0.478,0 -0.94594,0 -1.4043,0 z m 0.70898,1.15 c 0.76784,0 1.47117,0.18 1.81055,1.08 0.478,1.27 -0.40673,2.3 -1.55273,2.96 -0.329,0.2 -0.66238,0.38 -0.98438,0.57 -0.511,-0.62 0.55422,-1.07 -0.0508,-1.76 -0.758,0.1 -1.58025,0.71 -1.40625,1.35 0.554,2.02 -0.92406,1.63 -1.91406,1.86 -0.249,0.1 -0.51058,0.1 -0.76758,0.1 -1.075,0.1 -2.4602,0.49 -2.9082,-0.75 -0.426,-1.18 0.58725,-2.13 1.53125,-2.86 1.45,-1.11 3.09151,-1.86 4.85351,-2.29 0.44325,-0.11 0.92797,-0.22 1.38867,-0.24 z"
     id="path17"
     inkscape:connector-curvature="0" /><path
     style="clip-rule:evenodd;fill:#000000;fill-rule:evenodd;fill-opacity:1"
     inkscape:connector-curvature="0"
     id="path19"
     d="m 79.73439,102.90625 c -0.58,0.53 -1.076,1.46 -1.883,0.16 -0.789,-1.27 -5.074,1.84 -6.552,-0.7 -0.689,-1.18 -0.887,-2.4 -0.207,-3.68 1.266,-2.38 3.838,-3.99 6.401,-4.62 4.168,-1.02 6.399,-0.89 9.75,-3.82 0.461,-0.4 0.724,-1 0.409,-1.57 -0.336,-0.61 -0.929,-0.25 -1.395,-0.12 -1.372,0.39 -2.651,1 -3.866,1.75 -1.159,0.72 -2.414,1.22 -3.789,1.35 -0.82,0.1 -1.597,0 -1.925,-0.92 -0.258,-0.69 -0.207,-1.38 0.386,-1.96 0.614,-0.6 1.227,-1.16 2.177,-1.03 0.289,0 0.494,0.18 0.471,0.48 -0.026,0.35 -0.252,0.61 -0.602,0.67 -0.502,0.1 -0.887,0.17 -1.196,0.58 2.022,2.36 6.512,-3.16 9.135,-2.99 1.872,0.11 2.641,1.12 2.12,2.97 -0.434,1.54 -1.582,2.64 -2.483,3.89 -1.412,1.94 -2.622,3.99 -3.43,6.25 -0.163,0.46 -0.817,1.27 0.403,1.47 1.42,0.23 0.757,0.88 0.16,1.28 -0.991,0.66 -2.107,0.95 -3.304,0.53 -1.303,-1.28 -1.457,-2.76 -0.861,-4.42 0.188,-0.53 0.514,-1.17 -0.088,-1.61 -0.531,-0.38 -1.123,0 -1.66,0.17 -0.551,0.21 -1.036,0.53 -1.44,0.96 -0.497,0.53 -0.979,1.1 -0.726,1.89 0.27,0.84 1.038,0.87 1.754,0.92 1.327,0.1 2.754,0.1 2.241,2.12 z" /><path
     style="clip-rule:evenodd;fill:#000000;fill-rule:evenodd;fill-opacity:1"
     d="m 117.77445,88.61625 c -0.59826,0 -1.23239,0.23 -1.91601,0.72 -1.291,0.93 -2.32353,2.11 -3.51953,3.28 -0.153,-0.48 -0.25371,-0.78 -0.34571,-1.08 -0.413,-1.39 -1.04233,-2.61 -2.73633,-2.48 -1.266,0.1 -2.53384,2.05 -2.46484,3.55 0.023,0.52 -0.0229,1.13 0.61914,1.28 0.692,0.16 1.10995,-0.28 1.25195,-0.92 0.171,-0.77 0.28004,-1.55 1.45704,-1.48 -0.782,5.72 -3.02908,10.5 -8.08008,13.63 -0.364,0.23 -0.96635,0.37 -0.77735,0.92 0.187,0.53 0.9426,0.74 1.3086,0.57 1.523,-0.68 3.23836,-0.74 4.69336,-1.7 2.324,-1.54 3.03925,-3.87 3.65625,-6.36 0.781,-3.14 2.42145,-5.66 5.56445,-6.94 0.881,-0.36 1.76859,-0.55 2.55859,0.12 0.829,0.7 0.53557,1.59 0.35157,2.5 -0.412,2.05 -1.60924,3.63 -2.86524,5.19 -1.53,0.96 -2.33653,2.48 -3.01953,4.05 -0.43,0.99 -0.38511,2.08 0.58789,2.77 1.13,0.8 1.47033,-0.48 2.11133,-0.96 0,0 0.002,0 0.002,0 0.43459,-0.21 0.33286,-1.1 1.10547,-0.86 1.501,1.95 2.71278,1.86 3.67578,-0.27 -2.525,0.39 -2.69969,0.13 -2.42969,-2.67 0.179,-1.86 0.7695,-3.49 1.9375,-4.95 0.48,-0.6 0.8646,-1.3 1.1836,-2 0.819,-1.8 0.45895,-3.4 -1.12305,-4.68 -0.88812,-0.71 -1.79,-1.25 -2.78711,-1.23 z m -0.4707,11.57 c 5.9e-4,0 0.001,0 0.002,0 -0.012,1.02 -0.0213,2.04 -0.0312,3.05 -7.1e-4,0 -0.001,0 -0.002,0 -0.45704,-0.3 -0.92237,-0.7 -1.35938,-0.71 0.26757,-0.87 0.95896,-1.55 1.39063,-2.35 2.6e-4,0 -2.6e-4,0 0,0 z"
     id="path21"
     inkscape:connector-curvature="0" /><path
     style="clip-rule:evenodd;fill:#000000;fill-rule:evenodd;fill-opacity:1"
     d="m 322.72367,96.90625 c -0.844,0.41 -0.52575,1.53 -1.21875,2.02 -0.128,-0.1 -0.30245,-0.13 -0.31445,-0.21 -0.188,-1.13 -0.94753,-1.72 -1.89453,-1.21 -1.021,0.55 -0.424,1.42 0.125,2.11 0.597,0.75 0.55051,1.54 0.47851,2.5 -0.142,1.91 -1.74626,2.06 -2.82226,2.82 -2.309,1.64 -2.89496,4 -1.37696,5.93 1.498,1.9 3.12132,1.9 5.32032,-0.41 1.073,-1.13 1.7835,-0.67 2.3125,0.14 0.842,1.29 1.94565,2.42 2.47265,3.91 -0.099,0.76 -0.1564,1.53 -0.3164,2.28 -0.095,0.45 -0.40022,0.87 -0.94922,0.76 -0.537,-0.1 -0.66413,-0.54 -0.57813,-1.04 0.075,-0.44 0.5936,-1.11 -0.4414,-1.01 -0.603,0.1 -0.91622,0.53 -0.82422,1.1 0.147,0.92 0.53876,1.77 1.50976,2.05 1.026,0.29 1.51577,-0.42 1.88477,-1.24 0.349,-0.77 0.59012,-1.57 0.45312,-2.43 l 0,0 c 0.305,-0.63 0.93186,-0.79 1.50586,-1.06 1.534,-0.73 2.41061,-1.84 1.97461,-3.64 0.063,-1.55 -0.13136,-3.13 0.37891,-4.65 9.6e-4,0 0.003,0 0.004,0 0.609,-0.6 1.17417,-0.69 1.32617,0.31 0.144,0.95 0.0863,1.92 0.15625,2.88 0.035,0.46 -0.20721,1.16 0.59179,1.18 0.568,0 0.63441,-0.52 0.69141,-0.99 0.068,-0.58 0.18197,-1.15 0.29297,-1.71 0.397,-2.03 1.91762,-3.15 4.01562,-3.06 1.43,0.1 2.03688,0.77 1.67188,2.13 -0.382,1.43 -0.82042,2.85 -1.35742,4.22 -0.604,1.54 -0.48874,3.11 -0.55274,4.7 -0.045,1.13 1.90086,0.68 1.25586,1.97 l -0.002,0 c -0.596,0.79 -0.64277,1.57 -0.01,2.36 0.168,0.24 0.33396,0.48 0.50196,0.72 0,0 0,0 0,0 -0.235,0.44 -0.4178,0.93 -0.7168,1.33 -0.633,0.84 -1.50425,1.11 -2.53125,0.88 -0.916,-0.21 -1.43144,-0.89 -1.64844,-1.69 -0.291,-1.08 0.5817,-1.56 1.3457,-2.03 0.10409,0.22 0.27901,0.43 0.29297,0.65 0.027,0.39 -0.91792,0.94 0.0801,1.12 0.59,0.1 1.00585,-0.5 1.08985,-1.12 0.105,-0.79 -0.43366,-1.14 -1.05664,-1.4 l 0,0 -0.002,0 c -1.44203,0 -2.55654,0.75 -2.94336,2.07 -0.375,1.28 0.6483,2.18 1.57032,2.86 1.46699,1.08 3.50767,0.32 5.26367,-1.83 l 0.16015,-0.1 0.16992,0 0.002,0 c 1.60924,0.6 3.00005,0.51 3.88672,-1.21 0.535,-1.02 0.16867,-1.75 -0.73633,-2.31 -0.4619,-0.39 -0.50806,-0.88 -0.36133,-1.43 7.7e-4,0 0.001,0 0.002,0 l -0.002,0 -0.0996,0 0.0176,-0.1 c 1.10031,-0.27 1.30123,-1.21 1.62305,-2.11 0.336,-0.93 0.0473,-2.03 0.73828,-2.86 l 0.002,0 c 0.57,1.47 1.66245,2.38 3.18945,2.68 0.672,0.14 1.70497,0.14 1.70704,-0.74 0.004,-0.99 -0.88833,-0.21 -1.36133,-0.27 -1.065,-0.16 -2.02574,-0.61 -2.05274,-1.69 -0.024,-1.04 1.13622,-0.77 1.82422,-0.97 1.078,-0.3 2.25175,-0.39 3.09375,-1.42 -2.457,-0.46 -2.45751,-0.45 -0.97851,-2.63 0.168,-0.24 0.41837,-0.52 0.10937,-0.94 -0.707,-0.25 -1.33942,0.7 -2.10742,0.35 -0.034,-0.78 0.68939,-1.11 0.90039,-1.71 0.273,-0.26 0.55831,-0.51 0.82031,-0.78 1.012,-1.04 0.80092,-2.15 -0.0801,-3.06 -0.345,-0.36 -0.70361,-0.5 -1.06054,-0.5 -0.5949,0 -1.18368,0.37 -1.68555,0.78 -0.625,0.51 -1.07261,1.23 -1.59961,1.86 -2,2.46 -2.38072,5.42 -2.13672,8.38 0.174,2.11 -0.22698,3.8 -1.70898,5.26 -1.06043,0.7 -2.03604,0.55 -2.97656,-0.26 -0.95901,-0.82 -0.83766,-1.82 -0.47266,-2.83 0.613,-1.7 1.2973,-3.36 1.9043,-5.06 0.797,-2.21 0.26406,-4.5 -1.21094,-5.41 -0.561,-0.34 -1.20837,-0.5 -1.88477,-0.47 -1.12733,0.1 -2.3357,0.61 -3.36133,1.64 -0.43,0.44 -0.75807,0.88 -1.45507,0.63 -1.221,-0.44 -2.11563,0.1 -2.89063,0.99 -0.14553,0.16 -0.2205,0.33 -0.24023,0.5 -0.66887,1.59 -0.19175,3.25 -0.13477,4.89 10e-4,0 0.003,0 0.004,0 -7.1e-4,0 -10e-4,0 -0.002,0 -0.018,1.22 -0.53889,2.17 -1.71289,2.52 -1.331,0.39 -1.74645,-0.83 -2.31445,-1.63 -1.252,-1.75 -2.34589,-3.54 -1.58789,-5.89 0.193,-0.61 -0.008,-1.4 -1.05859,-0.87 -0.945,0.47 -1.48824,-0.23 -1.86524,-0.86 -0.42,-0.69 0.12936,-1.07 0.69336,-1.52 1.336,-1.06 1.85125,-3.4 1.28125,-5.15 z m 23.66797,5.67 c 0.692,0.49 1.7825,-0.26 2.3125,0.74 -1.838,1.34 -3.11531,3 -3.19531,5.38 -0.746,0.66 -0.67571,0 -0.72071,-0.45 -0.218,-2.1 0.80252,-3.86 1.60352,-5.67 z m -26.6582,4.04 c 0.85,0 1.54492,0.23 1.54492,1.26 -0.002,1.03 -1.57981,2.39 -2.75781,2.41 -0.857,0 -1.74774,0.1 -1.80274,-1.15 -0.047,-1.03 1.68163,-2.48 3.01563,-2.52 z"
     id="path23"
     inkscape:connector-curvature="0" /><path
     style="clip-rule:evenodd;fill:#000000;fill-rule:evenodd;fill-opacity:1"
     inkscape:connector-curvature="0"
     id="path33"
     d="m 352.63239,97.69625 c -0.603,0.15 -1.161,0.35 -1.548,0.73 -0.879,0.88 0.228,-11.2 2.499,-3.8 1.871,-1.61 3.443,-0.11 2.131,1.86 -0.561,0.84 -1.905,0.92 -3.082,1.21 z" /><path
     style="clip-rule:evenodd;fill:#000000;fill-rule:evenodd;fill-opacity:1"
     inkscape:connector-curvature="0"
     id="path79"
     d="m 37.33839,104.03625 c -1.316,0.63 -0.673,1.89 -0.807,2.98 -1.306,-0.37 -1.653,-1.21 -1.331,-2.23 0.304,-0.96 0.735,-2.01 2.149,-1.53 0.222,0.26 0.226,0.52 -0.011,0.78 z" /><path
     style="clip-rule:evenodd;fill:#000000;fill-rule:evenodd;fill-opacity:1"
     inkscape:connector-curvature="0"
     id="path97"
     d="m 37.33839,104.03625 c 0.004,-0.26 0.008,-0.52 0.012,-0.78 2.766,0.34 3.186,0.91 2.308,3.13 -0.14,-0.27 -0.279,-0.54 -0.419,-0.8 -0.223,-1.02 -0.984,-1.38 -1.901,-1.55 z" /><path
     style="clip-rule:evenodd;fill:#000000;fill-rule:evenodd;fill-opacity:1"
     inkscape:connector-curvature="0"
     id="path101"
     d="m 183.30939,92.84625 c -0.268,-0.53 -0.535,-1.06 -0.803,-1.59 0.428,-0.7 1.131,-1.43 1.775,-0.68 0.899,1.05 -0.396,1.61 -0.972,2.27 z" /><path
     style="clip-rule:evenodd;fill:#000000;fill-rule:evenodd;fill-opacity:1"
     d="m 21.717812,49.57625 c -1.567641,-0.1 -3.023063,1.05 -3.445313,2.77 -0.802,3.26 0.137469,6.25 1.105469,9.27 1.224,3.81 2.573016,7.59 2.041016,11.72 -0.111,0.86 -0.267735,1.66 -0.802735,2.34 -0.271,0.34 -0.592187,0.76 -1.117187,0.56 -0.448,-0.16 -0.365625,-0.65 -0.390625,-1.01 -0.088,-1.23 -0.192313,-2.44 -0.820313,-3.55 -1.332,-2.35 -3.55642,-3.88 -5.357422,-5.8 -0.263,-0.28 -0.651921,-0.47 -1.044921,-0.21 -0.395,0.27 -0.253032,0.67 -0.207032,1.06 0.129,1.06 0.66461,2.09 0.22461,3.38 -1.911,-1.01 -4.047938,-1.36 -5.835938,-2.57 -0.378,-0.25 -0.849717,-0.46 -1.261719,-0.15 -0.429,0.32 -0.122624,0.71 0.109376,1 3.513998,4.34 7.200171,8.44 12.951171,9.88 0.94,0.24 1.624797,0.1 2.341797,-0.43 2.376,-1.62 3.305407,-4.78 2.566406,-8.32 -0.727,-3.47 -1.850515,-6.83 -2.853515,-10.22 -0.633,-2.15 -0.573313,-4.34 -0.320313,-6.53 0.125,-1.08 0.936063,-1.45 1.914063,-1.59 0.838,-0.13 1.548344,0 2.027344,0.77 0.608,0.96 -0.258329,1.48 -0.736329,1.95 -0.849998,0.84 -0.502703,1.32 0.279297,1.81 0.867,0.54 1.577704,0.45 2.095703,-0.5 0.837002,-1.54 -0.116625,-4.16 -1.890624,-5.18 -0.513502,-0.29 -1.049719,-0.44 -1.572266,-0.45 z m -7.714844,19.46 c 2.878,1.65 4.259813,4.11 3.632813,6.22 -2.153,-1.51 -3.682813,-4.08 -3.632813,-6.22 z m -5.927734,1.38 c 3.219,0.1 5.222812,1.61 8.007812,6.01 -3.537,-1.09 -5.585812,-3.63 -8.007812,-6.01 z"
     id="path167"
     inkscape:connector-curvature="0" /><path
     style="clip-rule:evenodd;fill:#000000;fill-rule:evenodd;fill-opacity:1"
     d="m 7.739296,77.53625 c -0.124,0 -0.334468,0 -0.355468,0.1 -0.742001,1.99 -2.697672,2.09 -4.263672,2.84 -0.564,0.27 -0.235813,0.82 0.242187,1 1.594,0.63 2.834391,1.63 3.775391,3.07 0.556,0.86 1.31925,0.93 1.65625,-0.19 0.287,-0.95 0.853969,-1.56 1.667968,-2 1.107,-0.6 1.0235,-1.27 0.0625,-1.84 -0.975999,-0.58 -1.809609,-1.22 -2.099609,-2.37 -0.096,-0.37 -0.375547,-0.48 -0.685547,-0.59 z m 0.07227,2.82 c 0.627,0 1.220219,0.23 1.199219,0.93 -0.019,0.63 -0.390079,1.19 -1.080079,1.43 -0.655,-0.34 -1.303046,-0.81 -1.373046,-1.49 -0.069,-0.68 0.674906,-0.85 1.253906,-0.87 z"
     id="path175"
     inkscape:connector-curvature="0" /><path
     style="clip-rule:evenodd;fill:#000000;fill-rule:evenodd;fill-opacity:1"
     d="m 18.526406,84.24625 c -0.207703,0 -0.425157,0 -0.660157,0.1 -5.751,1.44 -9.437173,5.54 -12.951171,9.88 -0.232,0.29 -0.538376,0.68 -0.109376,1 0.412002,0.31 0.883719,0.1 1.261719,-0.15 1.788,-1.21 3.924938,-1.56 5.835938,-2.57 0.44,1.29 -0.09561,2.32 -0.22461,3.38 -0.046,0.39 -0.187968,0.79 0.207032,1.06 0.393,0.26 0.781921,0.1 1.044921,-0.21 1.801001,-1.92 4.025422,-3.45 5.357422,-5.8 0.628,-1.11 0.732313,-2.32 0.820313,-3.55 0.025,-0.36 -0.05737,-0.85 0.390625,-1.01 0.525,-0.2 0.846187,0.22 1.117187,0.56 0.535,0.68 0.691735,1.48 0.802735,2.34 0.532,4.13 -0.817016,7.91 -2.041016,11.72 -0.968,3.02 -1.907469,6.01 -1.105469,9.27 0.563,2.29 2.963578,3.5 5.017579,2.32 1.774,-1.02 2.727626,-3.64 1.890624,-5.18 -0.518,-0.95 -1.228703,-1.05 -2.095703,-0.5 -0.782,0.49 -1.129295,0.97 -0.279297,1.81 0.478,0.47 1.344329,0.99 0.736329,1.94 -0.479,0.76 -1.189344,0.91 -2.027344,0.78 -0.978,-0.14 -1.789063,-0.51 -1.914063,-1.59 -0.253,-2.19 -0.312687,-4.38 0.320313,-6.53 1.003,-3.39 2.126515,-6.75 2.853515,-10.23 0.739002,-3.53 -0.190406,-6.69 -2.566406,-8.31 -0.53775,-0.36 -1.058531,-0.56 -1.68164,-0.53 z m -2.44336,1.94 c -2.785,4.4 -4.788812,5.91 -8.007812,6.01 2.422,-2.38 4.470812,-4.92 8.007812,-6.01 z m 1.552735,1.17 c 0.627,2.11 -0.754813,4.57 -3.632813,6.22 -0.05,-2.15 1.479813,-4.71 3.632813,-6.22 z"
     id="path181"
     inkscape:connector-curvature="0" /><path
     inkscape:connector-curvature="0"
     style="clip-rule:evenodd;fill:#000000;fill-rule:evenodd;fill-opacity:1"
     d="m 382.7832,93.242188 c -0.62311,-0.02494 -1.14389,0.169156 -1.68164,0.535156 -2.376,1.619 -3.30345,4.78045 -2.56445,8.314456 0.727,3.475 1.85053,6.82865 2.85351,10.22265 0.633,2.147 0.57136,4.34321 0.31836,6.53321 -0.125,1.078 -0.93606,1.44484 -1.91406,1.58984 -0.838,0.125 -1.54639,-0.0213 -2.02539,-0.77734 -0.608,-0.955 0.25638,-1.47527 0.73438,-1.94727 0.85,-0.839 0.5027,-1.31364 -0.2793,-1.80664 -0.867,-0.546 -1.5777,-0.45491 -2.0957,0.49609 -0.837,1.538 0.11857,4.15969 1.89257,5.17969 2.054,1.18 4.45263,-0.0264 5.01563,-2.31641 0.802,-3.26398 -0.13552,-6.25157 -1.10352,-9.26757 -1.224,-3.813 -2.57495,-7.59566 -2.04297,-11.722659 0.11101,-0.856 0.26969,-1.658938 0.80469,-2.335938 0.271,-0.344 0.59219,-0.759453 1.11719,-0.564453 0.448,0.166 0.36564,0.653813 0.39062,1.007812 0.088,1.231 0.19036,2.439782 0.81836,3.550782 1.332,2.355996 3.55643,3.882736 5.35743,5.802736 0.263,0.28 0.65192,0.47403 1.04492,0.20703 0.395,-0.268 0.25303,-0.66964 0.20703,-1.05664 -0.129,-1.062 -0.66266,-2.09181 -0.22266,-3.38281 1.911,1.013 4.04599,1.36326 5.83399,2.57226 0.378,0.255 0.85167,0.45649 1.26367,0.14649 0.429,-0.321 0.12262,-0.71105 -0.10938,-0.99805 -3.514,-4.342002 -7.20017,-8.440813 -12.95117,-9.882813 -0.235,-0.059 -0.4544,-0.0913 -0.66211,-0.09961 z m 2.44336,1.943359 c 3.537,1.092 5.58777,3.633811 8.00977,6.007813 -3.219,-0.098 -5.22477,-1.608813 -8.00977,-6.007813 z m -1.55078,1.173828 c 2.153,1.509 3.68086,4.073705 3.63086,6.220705 -2.878,-1.657 -4.25786,-4.109705 -3.63086,-6.220705 z"
     id="path191" /><path
     inkscape:connector-curvature="0"
     style="clip-rule:evenodd;fill:#000000;fill-rule:evenodd;fill-opacity:1"
     d="m 393.26367,86.4375 c -0.302,0.0165 -0.57809,0.279438 -0.74609,0.835938 -0.287,0.947999 -0.85592,1.565906 -1.66992,2.003906 -1.108,0.596 -1.0235,1.272797 -0.0625,1.841797 0.975,0.577 1.81061,1.216281 2.09961,2.363281 0.096,0.375 0.3765,0.484891 0.6875,0.58789 0.123,-0.021 0.33346,-0.01126 0.35546,-0.07227 0.743,-1.987 2.69768,-2.09775 4.26368,-2.84375 0.563,-0.269 0.23481,-0.813 -0.24219,-1 -1.595,-0.623 -2.83635,-1.624266 -3.77734,-3.072266 -0.27801,-0.4295 -0.60621,-0.661031 -0.90821,-0.644531 z m 0.11719,2.462891 c 0.656,0.341 1.30305,0.810328 1.37305,1.486328 0.068,0.677 -0.67591,0.845093 -1.25391,0.871093 -0.627,0.028 -1.22122,-0.233687 -1.19922,-0.929687 0.017,-0.634 0.39008,-1.185734 1.08008,-1.427734 z"
     id="path199" /><path
     inkscape:connector-curvature="0"
     style="clip-rule:evenodd;fill:#000000;fill-rule:evenodd;fill-opacity:1"
     d="m 379.5918,58.572266 c -0.52255,0.0172 -1.05682,0.163984 -1.57032,0.458984 -1.774,1.02 -2.72957,3.638734 -1.89257,5.177734 0.518,0.951 1.2287,1.043094 2.0957,0.496094 0.782,-0.492 1.1293,-0.966687 0.2793,-1.804687 -0.478,-0.473 -1.34238,-0.992266 -0.73438,-1.947266 0.479,-0.756 1.18739,-0.904297 2.02539,-0.779297 0.978,0.145 1.78906,0.511844 1.91406,1.589844 0.253,2.189 0.31465,4.386203 -0.31836,6.533203 -1.00299,3.394 -2.12651,6.749609 -2.85351,10.224609 -0.739,3.533 0.18845,6.694453 2.56445,8.314454 0.717,0.487999 1.40375,0.671546 2.34375,0.435546 5.751,-1.443 9.43717,-5.540812 12.95117,-9.882812 0.232,-0.287 0.53838,-0.676047 0.10938,-0.998047 -0.412,-0.309 -0.88567,-0.106561 -1.26367,0.148437 -1.788,1.208 -3.92299,1.559313 -5.83399,2.570313 -0.44,-1.291 0.0937,-2.321813 0.22266,-3.382813 0.046,-0.387 0.18797,-0.78864 -0.20703,-1.05664 -0.393,-0.266 -0.78192,-0.07197 -1.04492,0.207031 -1.801,1.92 -4.02543,3.446734 -5.35743,5.802735 -0.628,1.111 -0.73035,2.319781 -0.81836,3.550781 -0.025,0.354 0.0574,0.841812 -0.39062,1.007812 -0.525,0.195 -0.84619,-0.221406 -1.11719,-0.566406 -0.535,-0.676 -0.69367,-1.478984 -0.80469,-2.333984 -0.53199,-4.127 0.81897,-7.91061 2.04297,-11.72461 0.968,-3.016 1.90552,-6.003578 1.10352,-9.267578 -0.42225,-1.71675 -1.87767,-2.825047 -3.44531,-2.773437 z m 7.71484,19.460937 c 0.05,2.149 -1.47786,4.710703 -3.63086,6.220703 -0.627,-2.112 0.75286,-4.562703 3.63086,-6.220703 z m 5.92969,1.386719 c -2.422,2.375 -4.47277,4.915812 -8.00977,6.007812 2.785,-4.399 4.79077,-5.909812 8.00977,-6.007812 z"
     id="path205" /><path
     style="clip-rule:evenodd;fill:#000000;fill-rule:evenodd;fill-opacity:1"
     d="m 377.54398,131.18625 c -1.41531,0 -3.00945,0.46 -4.74804,1.52 -1.868,1.14 -2.82247,3.52 -2.35547,5.87 0.349,1.76 2.24186,3.27 4.38086,3.52 2.405,0.27 3.41897,-1.51 2.91797,-3.61 -9.70416,5.71 -5.23752,-9.45 1.73828,-3.83 3.09382,5.57 -0.27163,11.16 -5.1875,13.07 -7.47246,2.35 -15.46166,3.53 -22.52935,4.15 -5.457,-0.23 -10.96571,0.69 -15.5293,0 l -0.002,0 c -4.012,-0.28 -8.01925,-0.57 -12.03125,-0.85 l 0,0 c -0.092,-0.1 -0.18909,-0.1 -0.29101,0 -13.42562,-1.43 -26.04522,-3.11 -38.60352,-4.02 -16.88865,-0.93 -34.01811,-0.62 -48.74024,4.37 -4.403,1.5 -8.70345,4.4 -12.43945,7.1 -2.72022,2.55 -3.45709,3.3 -5.83594,8.37 -4.90654,-8.53 -12.01708,-14.03 -21.36328,-17.83 -11.827,-4.8 -24.32672,-6.34 -37.01172,-6.32 -9.128,0 -18.2219,0.69 -27.2539,2.11 -14.88411,1.84 -30.589,5.24 -44.02149,7.84 -9.178,1.78 -18.31281,3.75 -27.50781,5.45 -8.788,1.62 -17.5503,2.82 -26.529296,1.95 -7.254,-0.7 -12.353453,-4.21 -15.189453,-10.86 -1.618,-3.78 -1.1745,-7.59 1.4375,-10.77 3.011,-3.67 9.802033,-1.96 8.082031,3.5 -2.316997,-0.1 -3.407109,-3.36 -5.412109,-3.26 -0.979,0.1 -1.03402,1.06 -0.916015,1.84 0.218997,1.44 0.671734,2.84 2.052734,3.56 8.101656,4.2 12.336938,-9.31 2.505859,-9.31 -0.317131,0 -0.64739,0 -0.99414,0 -5.815,0.49 -9.053844,4.47 -9.089844,10.02 -0.047,7.14 5.709359,14.83 14.193359,16.37 8.586004,1.56 17.150954,0.74 25.626954,-0.82 7.9066,-0.35 21.89769,-2.19 49.9815,-8.38 20.47586,-5.24 71.00198,-1.2 81.32123,3.01 12.662,3.36 23.07224,8.64 31.99024,18.29 0.428,-5.89 2.19122,-11.73 7.07422,-15.82 12.16972,-7.68 29.13582,-7.26 41.58789,-6.21 14.20214,1.35 31.93435,4.09 44.51953,5.95 6.986,0 13.85787,1.14 20.79687,1.5 5.215,0.26 10.41772,0.67 15.63672,0.14 6.37242,-0.24 11.49105,-1.22 18.47852,-2.54 12.69755,-1.97 21.51459,-24.3 9.2598,-25.06 z m 2.9043,13.3 c -4.4549,9.87 -8.30374,9.08 -12.73806,10.91 -3.62436,0.82 -5.88946,1.66 -20.81968,2.43 -23.09711,-1.89 -49.09966,-3.16 -68.67206,-7.09 -8.38603,-0.53 -15.11141,-1.29 -23.3164,-1.64 6.46216,-0.32 12.91287,-0.46 19.37695,-0.85 23.82668,0.15 60.25816,6.19 71.59072,5.93 4.32671,-0.1 23.21686,0 34.57853,-9.69 z"
     id="path215"
     inkscape:connector-curvature="0"
     sodipodi:nodetypes="cccccccccccccccccsscccccccccccccccccccccccccccccccccc" /><path
     style="clip-rule:evenodd;fill:#000000;fill-rule:evenodd;fill-opacity:1"
     d="m 222.19047,2.15625 c -8.918,9.65 -19.32824,14.93 -31.99024,18.29 -11.829,3.14 -12.3834,5.41 -24.5664,6.34 -27.73,12.64 -145.538121,-38.95 -146.558596,3.84 0.036,5.55 3.274844,9.53 9.089844,10.02 11.096002,0.93 6.853234,-13.6 -1.509766,-9.27 -1.381,0.72 -1.835688,2.12 -2.054688,3.56 -0.118,0.78 -0.06103,1.78 0.917969,1.84 2.005,0.1 3.093156,-3.16 5.410156,-3.26 1.72,5.46 -5.069078,7.18 -8.080078,3.5 -7.066988,-10.86 5.122281,-20.65 13.749999,-21.63 18.8564,-0.99 36.97791,4.08 54.03906,7.4 10.138,1.96 20.26297,4 30.41797,5.87 4.503,0.82 9.07555,1.26 13.60157,1.97 9.032,1.42 18.12785,2.1 27.25585,2.12 12.685,0 25.18377,-1.53 37.00977,-6.33 l 14.29297,-8.72 c 5.80265,-5 5.08954,-5.17 7.5625,-9.63 1.33863,4.41 4.5047,8.28 5.3457,8.89 3.736,2.7 8.0345,5.6 12.4375,7.1 2.623,0.9 5.2031,1.96 7.9961,2.26 l 0.002,0 c 0.15893,0.1 0.31688,0.13 0.47461,0.15 37.19461,8.69 77.66526,-4.64 111.19531,-4.1 7.66366,0.5 17.33719,3.8 23.04688,8.8 1.7904,3.02 2.22962,7.11 0.20117,9.56 -6.105,7.36 -10.64728,-7.95 -1.73828,-3.82 0.501,-2.11 -0.51297,-3.89 -2.91797,-3.62 -2.139,0.25 -4.03186,1.76 -4.38086,3.52 -0.467,2.35 0.48747,4.73 2.35547,5.87 10.65343,6.5 15.92335,-9.58 7.28711,-15.59 -5.20909,-6.1 -14.69988,-8.48 -21.88086,-9.75 -42.17831,-6.3 -79.34512,13.44 -117.14063,5.89 -12.97156,-2.8 -19.78824,-7.82 -20.87109,-21.07 z"
     id="path391"
     inkscape:connector-curvature="0"
     sodipodi:nodetypes="ccccccccccccccscccccccccccccccccccc" /></svg>